<svg width="512" height="512" viewBox="0 0 512 512" fill="none" xmlns="http://www.w3.org/2000/svg">
  <defs>
    <linearGradient id="bgGradient" x1="0%" y1="0%" x2="100%" y2="100%">
      <stop offset="0%" style="stop-color:#4ECDC4;stop-opacity:1" />
      <stop offset="100%" style="stop-color:#2196F3;stop-opacity:1" />
    </linearGradient>
    <linearGradient id="sparkGradient" x1="0%" y1="0%" x2="100%" y2="100%">
      <stop offset="0%" style="stop-color:#FFD700;stop-opacity:1" />
      <stop offset="100%" style="stop-color:#FFA726;stop-opacity:1" />
    </linearGradient>
    <linearGradient id="bookGradient" x1="0%" y1="0%" x2="100%" y2="100%">
      <stop offset="0%" style="stop-color:#ffffff;stop-opacity:1" />
      <stop offset="100%" style="stop-color:#f8f9fa;stop-opacity:1" />
    </linearGradient>
  </defs>
  
  <!-- Main background circle -->
  <circle cx="256" cy="256" r="240" fill="url(#bgGradient)" stroke="#ffffff" stroke-width="32"/>
  
  <!-- Open book icon with more detail -->
  <path d="M128 160 L128 384 L384 384 L384 160 Z" fill="none" stroke="url(#bookGradient)" stroke-width="24" stroke-linecap="round" stroke-linejoin="round"/>
  <path d="M128 160 L256 96 L384 160" fill="none" stroke="url(#bookGradient)" stroke-width="24" stroke-linecap="round" stroke-linejoin="round"/>
  <line x1="256" y1="96" x2="256" y2="384" stroke="url(#bookGradient)" stroke-width="16" stroke-linecap="round"/>
  
  <!-- Book pages detail -->
  <line x1="144" y1="200" x2="240" y2="200" stroke="#ffffff" stroke-width="8" stroke-linecap="round" opacity="0.7"/>
  <line x1="144" y1="230" x2="220" y2="230" stroke="#ffffff" stroke-width="6" stroke-linecap="round" opacity="0.5"/>
  <line x1="272" y1="200" x2="368" y2="200" stroke="#ffffff" stroke-width="8" stroke-linecap="round" opacity="0.7"/>
  <line x1="272" y1="230" x2="348" y2="230" stroke="#ffffff" stroke-width="6" stroke-linecap="round" opacity="0.5"/>
  
  <!-- Learning spark/star -->
  <circle cx="352" cy="192" r="48" fill="url(#sparkGradient)" stroke="#ffffff" stroke-width="8"/>
  <path d="M352 160 L360 184 L384 192 L360 200 L352 224 L344 200 L320 192 L344 184 Z" fill="#ffffff"/>
  
  <!-- Play element (triangle) -->
  <path d="M176 256 L176 320 L240 288 Z" fill="#ffffff"/>
  
  <!-- Educational elements -->
  <circle cx="96" cy="128" r="16" fill="#ffffff" opacity="0.8"/>
  <circle cx="416" cy="416" r="16" fill="#ffffff" opacity="0.8"/>
  <circle cx="80" cy="400" r="12" fill="#ffffff" opacity="0.6"/>
  <circle cx="432" cy="112" r="12" fill="#ffffff" opacity="0.6"/>
  
  <!-- Small sparkles -->
  <circle cx="160" cy="120" r="8" fill="#FFD700" opacity="0.9"/>
  <circle cx="380" cy="350" r="6" fill="#FFA726" opacity="0.8"/>
</svg>