<svg width="180" height="180" viewBox="0 0 180 180" fill="none" xmlns="http://www.w3.org/2000/svg">
  <defs>
    <linearGradient id="bgGradient" x1="0%" y1="0%" x2="100%" y2="100%">
      <stop offset="0%" style="stop-color:#4ECDC4;stop-opacity:1" />
      <stop offset="100%" style="stop-color:#2196F3;stop-opacity:1" />
    </linearGradient>
    <linearGradient id="sparkGradient" x1="0%" y1="0%" x2="100%" y2="100%">
      <stop offset="0%" style="stop-color:#FFD700;stop-opacity:1" />
      <stop offset="100%" style="stop-color:#FFA726;stop-opacity:1" />
    </linearGradient>
  </defs>
  
  <!-- Rounded rectangle background for iOS -->
  <rect x="0" y="0" width="180" height="180" rx="40" ry="40" fill="url(#bgGradient)"/>
  
  <!-- Open book icon -->
  <path d="M45 56 L45 135 L135 135 L135 56 Z" fill="none" stroke="#ffffff" stroke-width="8" stroke-linecap="round" stroke-linejoin="round"/>
  <path d="M45 56 L90 34 L135 56" fill="none" stroke="#ffffff" stroke-width="8" stroke-linecap="round" stroke-linejoin="round"/>
  <line x1="90" y1="34" x2="90" y2="135" stroke="#ffffff" stroke-width="5" stroke-linecap="round"/>
  
  <!-- Learning spark/star -->
  <circle cx="124" cy="67" r="17" fill="url(#sparkGradient)" stroke="#ffffff" stroke-width="2"/>
  <path d="M124 56 L127 65 L136 67 L127 70 L124 79 L121 70 L112 67 L121 65 Z" fill="#ffffff"/>
  
  <!-- Play element (triangle) -->
  <path d="M62 90 L62 112 L84 101 Z" fill="#ffffff"/>
  
  <!-- Small learning dots -->
  <circle cx="34" cy="45" r="5" fill="#ffffff" opacity="0.8"/>
  <circle cx="146" cy="146" r="5" fill="#ffffff" opacity="0.8"/>
</svg>