<!-- This is a placeholder for favicon.ico generation -->
<!-- In a real scenario, you would use a tool like https://favicon.io or similar to generate proper ICO files -->
<!-- For now, we'll update the SVG and create a simple PNG-based favicon -->

<!-- Favicon sizes needed:
- 16x16 (favicon.ico)
- 32x32 (favicon.ico) 
- 180x180 (apple-touch-icon.png)
- 192x192 (android-chrome-192x192.png)
- 512x512 (android-chrome-512x512.png)
-->

<svg width="32" height="32" viewBox="0 0 32 32" fill="none" xmlns="http://www.w3.org/2000/svg">
  <defs>
    <linearGradient id="bgGradient" x1="0%" y1="0%" x2="100%" y2="100%">
      <stop offset="0%" style="stop-color:#4ECDC4;stop-opacity:1" />
      <stop offset="100%" style="stop-color:#2196F3;stop-opacity:1" />
    </linearGradient>
    <linearGradient id="sparkGradient" x1="0%" y1="0%" x2="100%" y2="100%">
      <stop offset="0%" style="stop-color:#FFD700;stop-opacity:1" />
      <stop offset="100%" style="stop-color:#FFA726;stop-opacity:1" />
    </linearGradient>
  </defs>
  
  <!-- Main background circle -->
  <circle cx="16" cy="16" r="15" fill="url(#bgGradient)" stroke="#ffffff" stroke-width="2"/>
  
  <!-- Open book icon -->
  <path d="M8 10 L8 24 L24 24 L24 10 Z" fill="none" stroke="#ffffff" stroke-width="1.5" stroke-linecap="round" stroke-linejoin="round"/>
  <path d="M8 10 L16 6 L24 10" fill="none" stroke="#ffffff" stroke-width="1.5" stroke-linecap="round" stroke-linejoin="round"/>
  <line x1="16" y1="6" x2="16" y2="24" stroke="#ffffff" stroke-width="1" stroke-linecap="round"/>
  
  <!-- Learning spark/star -->
  <circle cx="22" cy="12" r="3" fill="url(#sparkGradient)" stroke="#ffffff" stroke-width="0.5"/>
  <path d="M22 10 L22.5 11.5 L24 12 L22.5 12.5 L22 14 L21.5 12.5 L20 12 L21.5 11.5 Z" fill="#ffffff"/>
  
  <!-- Play element (triangle) -->
  <path d="M11 16 L11 20 L15 18 Z" fill="#ffffff"/>
  
  <!-- Small learning dots -->
  <circle cx="6" cy="8" r="1" fill="#ffffff" opacity="0.8"/>
  <circle cx="26" cy="26" r="1" fill="#ffffff" opacity="0.8"/>
</svg>